# xmcd
#
# Track frame offsets: 
#        150
#        11437
#        22352
#        33925
#        47215
#        58352
#        68295
#        80700
#        93197
#        105047
#
# Disc length: 1512 seconds
#
# Revision: 0
# Processed by: cddbd v1.4PL0 Copyright (c) Steve Scherf et al.
# Submitted via: ExactAudioCopy v0.90b4
#
DISCID=7505e60a
DTITLE=J. D. Crow and the new south - Bluegrass evolution
DYEAR=1997
DGENRE=Bluegrass
TTITLE0=You can have her
TTITLE1=you can share my blanket
TTITLE2=devil in disguise
TTITLE3=god's own singer
TTITLE4=ten degrees and getting colder
TTITLE5=how come you do me
TTITLE6=for loving me
TTITLE7=my heart talks to me
TTITLE8=come on down to my world
TTITLE9=leaves that are green
EXTD=
EXTT0=
EXTT1=
EXTT2=
EXTT3=
EXTT4=
EXTT5=
EXTT6=
EXTT7=
EXTT8=
EXTT9=
PLAYORDER=
